<?xml version="1.0" encoding="UTF-8"?>
<!DOCTYPE svg PUBLIC "-//W3C//DTD SVG 1.1//EN" "http://www.w3.org/Graphics/SVG/1.1/DTD/svg11.dtd">
<svg xmlns="http://www.w3.org/2000/svg" version="1.1" width="512px" height="512px" style="shape-rendering:geometricPrecision; text-rendering:geometricPrecision; image-rendering:optimizeQuality; fill-rule:evenodd; clip-rule:evenodd" xmlns:xlink="http://www.w3.org/1999/xlink">
<g><path style="opacity:0.991" fill="#000000" d="M 343.5,223.5 C 339.363,223.518 336.863,221.518 336,217.5C 335.5,176.835 335.333,136.168 335.5,95.5C 322.167,95.5 308.833,95.5 295.5,95.5C 284.651,94.9834 277.151,89.65 273,79.5C 271.546,63.5707 271.046,47.5707 271.5,31.5C 197.499,31.3333 123.499,31.5 49.5,32C 41,35.1667 35.1667,41 32,49.5C 31.5,168.833 31.3333,288.166 31.5,407.5C 32.3705,419.21 38.3705,427.043 49.5,431C 105.5,431.333 161.5,431.667 217.5,432C 221.518,432.863 223.518,435.363 223.5,439.5C 223.854,442.961 222.521,445.461 219.5,447C 161.833,447.667 104.167,447.667 46.5,447C 30.3333,442.833 20.1667,432.667 16,416.5C 15.3333,293.167 15.3333,169.833 16,46.5C 20.1667,30.3333 30.3333,20.1667 46.5,16C 122.833,15.3333 199.167,15.3333 275.5,16C 282.327,17.4133 288.327,20.4133 293.5,25C 309.667,41.1667 325.833,57.3333 342,73.5C 345.499,77.6717 348.166,82.3384 350,87.5C 351.645,131.454 351.979,175.454 351,219.5C 349.461,222.521 346.961,223.854 343.5,223.5 Z"/></g>
<g><path style="opacity:1" fill="#ededed" d="M 295.5,95.5 C 295.5,106.167 295.5,116.833 295.5,127.5C 267.831,127.333 240.165,127.5 212.5,128C 207.432,130.983 206.265,135.149 209,140.5C 209.903,141.701 211.069,142.535 212.5,143C 240.165,143.5 267.831,143.667 295.5,143.5C 295.5,154.167 295.5,164.833 295.5,175.5C 267.831,175.333 240.165,175.5 212.5,176C 207.432,178.983 206.265,183.149 209,188.5C 209.903,189.701 211.069,190.535 212.5,191C 240.165,191.5 267.831,191.667 295.5,191.5C 295.828,203.678 295.495,215.678 294.5,227.5C 293.547,225.39 291.881,224.223 289.5,224C 242.5,223.333 195.5,223.333 148.5,224C 143.432,226.983 142.265,231.149 145,236.5C 145.903,237.701 147.069,238.535 148.5,239C 195.5,239.667 242.5,239.667 289.5,239C 291.881,238.777 293.547,237.61 294.5,235.5C 295.497,252.659 295.83,269.992 295.5,287.5C 277.497,287.333 259.497,287.5 241.5,288C 234.143,290.689 228.643,295.522 225,302.5C 223.374,320.434 223.041,338.434 224,356.5C 225.472,367.116 230.305,375.783 238.5,382.5C 239.498,390.807 239.831,399.14 239.5,407.5C 170.167,407.5 100.833,407.5 31.5,407.5C 31.3333,288.166 31.5,168.833 32,49.5C 35.1667,41 41,35.1667 49.5,32C 123.499,31.5 197.499,31.3333 271.5,31.5C 271.046,47.5707 271.546,63.5707 273,79.5C 277.151,89.65 284.651,94.9834 295.5,95.5 Z"/></g>
<g><path style="opacity:1" fill="#bbbbbb" d="M 287.5,43.5 C 299.632,55.1313 311.632,66.9647 323.5,79C 312.402,79.9537 301.402,79.6204 290.5,78C 289.299,77.0975 288.465,75.9308 288,74.5C 287.5,64.172 287.334,53.8387 287.5,43.5 Z"/></g>
<g><path style="opacity:1" fill="#030303" d="M 159.5,183.5 C 159.666,176.159 159.5,168.826 159,161.5C 154.739,149.456 146.239,143.456 133.5,143.5C 121.495,143.333 109.495,143.5 97.5,144C 83.1135,149.597 77.1135,160.097 79.5,175.5C 79.5,178.167 79.5,180.833 79.5,183.5C 77.8113,190.685 73.4779,192.852 66.5,190C 65.1068,188.829 64.2735,187.329 64,185.5C 58.7767,160.296 67.2767,141.629 89.5,129.5C 74.4812,108.241 76.4812,88.7406 95.5,71C 116.577,58.8282 135.411,61.6615 152,79.5C 162.455,96.7171 161.621,113.384 149.5,129.5C 171.723,141.629 180.223,160.296 175,185.5C 173.207,190.335 169.707,192.168 164.5,191C 161.292,189.563 159.625,187.063 159.5,183.5 Z"/></g>
<g><path style="opacity:1" fill="#040404" d="M 212.5,79.5 C 223.245,79.0712 233.912,79.5712 244.5,81C 247.848,84.4186 248.348,88.252 246,92.5C 244.829,93.8932 243.329,94.7265 241.5,95C 231.833,95.6667 222.167,95.6667 212.5,95C 205.889,89.798 205.889,84.6314 212.5,79.5 Z"/></g>
<g><path style="opacity:1" fill="#fccaba" d="M 124.5,80.5 C 129.653,93.3864 128.153,105.386 120,116.5C 116.574,119.793 112.741,122.459 108.5,124.5C 95.5221,116.051 92.3555,104.718 99,90.5C 105.356,81.3961 113.856,78.0628 124.5,80.5 Z"/></g>
<g><path style="opacity:1" fill="#faa88e" d="M 124.5,80.5 C 141.471,86.1115 146.971,97.4448 141,114.5C 132.808,127.038 121.975,130.371 108.5,124.5C 112.741,122.459 116.574,119.793 120,116.5C 128.153,105.386 129.653,93.3864 124.5,80.5 Z"/></g>
<g><path style="opacity:1" fill="#dfdfdf" d="M 295.5,95.5 C 308.833,95.5 322.167,95.5 335.5,95.5C 335.333,136.168 335.5,176.835 336,217.5C 336.863,221.518 339.363,223.518 343.5,223.5C 343.5,228.833 343.5,234.167 343.5,239.5C 323.728,237.625 310.562,245.959 304,264.5C 303.5,272.159 303.334,279.826 303.5,287.5C 300.833,287.5 298.167,287.5 295.5,287.5C 295.83,269.992 295.497,252.659 294.5,235.5C 295.714,232.796 295.714,230.129 294.5,227.5C 295.495,215.678 295.828,203.678 295.5,191.5C 300.719,191.113 303.386,188.28 303.5,183C 302.932,178.265 300.265,175.765 295.5,175.5C 295.5,164.833 295.5,154.167 295.5,143.5C 300.719,143.113 303.386,140.28 303.5,135C 302.932,130.265 300.265,127.765 295.5,127.5C 295.5,116.833 295.5,106.167 295.5,95.5 Z"/></g>
<g><path style="opacity:1" fill="#010101" d="M 295.5,127.5 C 300.265,127.765 302.932,130.265 303.5,135C 303.386,140.28 300.719,143.113 295.5,143.5C 267.831,143.667 240.165,143.5 212.5,143C 211.069,142.535 209.903,141.701 209,140.5C 206.265,135.149 207.432,130.983 212.5,128C 240.165,127.5 267.831,127.333 295.5,127.5 Z"/></g>
<g><path style="opacity:1" fill="#63b4f5" d="M 133.5,143.5 C 141.571,151.882 144.738,161.882 143,173.5C 142.5,174 142,174.5 141.5,175C 120.836,175.5 100.169,175.667 79.5,175.5C 77.1135,160.097 83.1135,149.597 97.5,144C 109.495,143.5 121.495,143.333 133.5,143.5 Z"/></g>
<g><path style="opacity:1" fill="#41a4f3" d="M 133.5,143.5 C 146.239,143.456 154.739,149.456 159,161.5C 159.5,168.826 159.666,176.159 159.5,183.5C 132.833,183.5 106.167,183.5 79.5,183.5C 79.5,180.833 79.5,178.167 79.5,175.5C 100.169,175.667 120.836,175.5 141.5,175C 142,174.5 142.5,174 143,173.5C 144.738,161.882 141.571,151.882 133.5,143.5 Z"/></g>
<g><path style="opacity:1" fill="#010101" d="M 295.5,175.5 C 300.265,175.765 302.932,178.265 303.5,183C 303.386,188.28 300.719,191.113 295.5,191.5C 267.831,191.667 240.165,191.5 212.5,191C 211.069,190.535 209.903,189.701 209,188.5C 206.265,183.149 207.432,178.983 212.5,176C 240.165,175.5 267.831,175.333 295.5,175.5 Z"/></g>
<g><path style="opacity:1" fill="#020202" d="M 68.5,223.5 C 86.1698,223.333 103.836,223.5 121.5,224C 127.462,226.405 128.962,230.571 126,236.5C 124.829,237.893 123.329,238.727 121.5,239C 103.833,239.667 86.1667,239.667 68.5,239C 61.889,233.798 61.889,228.631 68.5,223.5 Z"/></g>
<g><path style="opacity:1" fill="#010101" d="M 294.5,227.5 C 295.714,230.129 295.714,232.796 294.5,235.5C 293.547,237.61 291.881,238.777 289.5,239C 242.5,239.667 195.5,239.667 148.5,239C 147.069,238.535 145.903,237.701 145,236.5C 142.265,231.149 143.432,226.983 148.5,224C 195.5,223.333 242.5,223.333 289.5,224C 291.881,224.223 293.547,225.39 294.5,227.5 Z"/></g>
<g><path style="opacity:0.994" fill="#000000" d="M 343.5,239.5 C 359.503,239.333 375.503,239.5 391.5,240C 404,243.167 411.833,251 415,263.5C 415.5,271.493 415.666,279.493 415.5,287.5C 436.503,287.333 457.503,287.5 478.5,288C 486.667,290.833 492.167,296.333 495,304.5C 495.667,323.167 495.667,341.833 495,360.5C 492.751,370.008 487.751,377.674 480,383.5C 479.667,415.167 479.333,446.833 479,478.5C 476.167,486.667 470.667,492.167 462.5,495C 393.833,495.667 325.167,495.667 256.5,495C 248.333,492.167 242.833,486.667 240,478.5C 239.5,465.504 239.333,452.504 239.5,439.5C 239.5,428.833 239.5,418.167 239.5,407.5C 239.831,399.14 239.498,390.807 238.5,382.5C 230.305,375.783 225.472,367.116 224,356.5C 223.041,338.434 223.374,320.434 225,302.5C 228.643,295.522 234.143,290.689 241.5,288C 259.497,287.5 277.497,287.333 295.5,287.5C 298.167,287.5 300.833,287.5 303.5,287.5C 303.334,279.826 303.5,272.159 304,264.5C 310.562,245.959 323.728,237.625 343.5,239.5 Z M 343.5,255.5 C 356.837,255.333 370.171,255.5 383.5,256C 390.566,256.447 395.399,259.947 398,266.5C 399.288,273.437 399.788,280.437 399.5,287.5C 380.833,287.5 362.167,287.5 343.5,287.5C 343.5,276.833 343.5,266.167 343.5,255.5 Z"/></g>
<g><path style="opacity:1" fill="#dedede" d="M 343.5,255.5 C 343.5,266.167 343.5,276.833 343.5,287.5C 335.5,287.5 327.5,287.5 319.5,287.5C 319.334,280.492 319.5,273.492 320,266.5C 324.884,256.81 332.717,253.144 343.5,255.5 Z"/></g>
<g><path style="opacity:1" fill="#020202" d="M 68.5,271.5 C 86.1698,271.333 103.836,271.5 121.5,272C 127.462,274.405 128.962,278.571 126,284.5C 124.829,285.893 123.329,286.727 121.5,287C 103.833,287.667 86.1667,287.667 68.5,287C 61.889,281.798 61.889,276.631 68.5,271.5 Z"/></g>
<g><path style="opacity:1" fill="#020202" d="M 148.5,271.5 C 168.836,271.333 189.169,271.5 209.5,272C 215.462,274.405 216.962,278.571 214,284.5C 212.829,285.893 211.329,286.727 209.5,287C 189.167,287.667 168.833,287.667 148.5,287C 141.889,281.798 141.889,276.631 148.5,271.5 Z"/></g>
<g><path style="opacity:1" fill="#a0877e" d="M 445.5,303.5 C 445.987,304.473 446.487,305.473 447,306.5C 447.667,323.833 447.667,341.167 447,358.5C 445.249,363.674 442.749,368.341 439.5,372.5C 439.666,367.156 439.499,361.823 439,356.5C 438.535,355.069 437.701,353.903 436.5,353C 423.236,351.389 409.903,351.056 396.5,352C 394.333,352.833 392.833,354.333 392,356.5C 391.5,362.825 391.334,369.158 391.5,375.5C 370.167,375.5 348.833,375.5 327.5,375.5C 327.666,369.158 327.5,362.825 327,356.5C 326.535,355.069 325.701,353.903 324.5,353C 317.409,351.888 310.242,351.388 303,351.5C 282.242,346.758 274.409,354.758 279.5,375.5C 271.083,375.906 262.749,375.406 254.5,374C 246.643,370.149 241.81,363.983 240,355.5C 239.333,339.833 239.333,324.167 240,308.5C 240.833,306.333 242.333,304.833 244.5,304C 311.499,303.5 378.499,303.333 445.5,303.5 Z"/></g>
<g><path style="opacity:1" fill="#8c6d62" d="M 445.5,303.5 C 455.172,303.334 464.839,303.5 474.5,304C 475.931,304.465 477.097,305.299 478,306.5C 479.637,323.075 479.97,339.742 479,356.5C 476.058,366.443 469.558,372.609 459.5,375C 452.842,375.5 446.175,375.666 439.5,375.5C 439.5,374.5 439.5,373.5 439.5,372.5C 442.749,368.341 445.249,363.674 447,358.5C 447.667,341.167 447.667,323.833 447,306.5C 446.487,305.473 445.987,304.473 445.5,303.5 Z"/></g>
<g><path style="opacity:1" fill="#020202" d="M 68.5,319.5 C 86.1698,319.333 103.836,319.5 121.5,320C 127.462,322.405 128.962,326.571 126,332.5C 124.829,333.893 123.329,334.727 121.5,335C 103.833,335.667 86.1667,335.667 68.5,335C 61.889,329.798 61.889,324.631 68.5,319.5 Z"/></g>
<g><path style="opacity:1" fill="#020202" d="M 148.5,319.5 C 166.17,319.333 183.836,319.5 201.5,320C 207.462,322.405 208.962,326.571 206,332.5C 204.829,333.893 203.329,334.727 201.5,335C 183.833,335.667 166.167,335.667 148.5,335C 141.889,329.798 141.889,324.631 148.5,319.5 Z"/></g>
<g><path style="opacity:1" fill="#020202" d="M 68.5,367.5 C 86.1698,367.333 103.836,367.5 121.5,368C 127.462,370.405 128.962,374.571 126,380.5C 124.829,381.893 123.329,382.727 121.5,383C 103.833,383.667 86.1667,383.667 68.5,383C 61.889,377.798 61.889,372.631 68.5,367.5 Z"/></g>
<g><path style="opacity:1" fill="#020202" d="M 148.5,367.5 C 166.17,367.333 183.836,367.5 201.5,368C 207.462,370.405 208.962,374.571 206,380.5C 204.829,381.893 203.329,382.727 201.5,383C 183.833,383.667 166.167,383.667 148.5,383C 141.889,377.798 141.889,372.631 148.5,367.5 Z"/></g>
<g><path style="opacity:1" fill="#fdb54c" d="M 303.5,367.5 C 303.666,374.175 303.5,380.842 303,387.5C 301.657,390.862 299.824,393.862 297.5,396.5C 296.778,396.082 296.278,395.416 296,394.5C 295.5,385.506 295.334,376.506 295.5,367.5C 298.167,367.5 300.833,367.5 303.5,367.5 Z"/></g>
<g><path style="opacity:1" fill="#fba425" d="M 303.5,367.5 C 306.167,367.5 308.833,367.5 311.5,367.5C 311.666,376.506 311.5,385.506 311,394.5C 309.604,397.784 307.104,399.451 303.5,399.5C 300.898,399.533 298.898,398.533 297.5,396.5C 299.824,393.862 301.657,390.862 303,387.5C 303.5,380.842 303.666,374.175 303.5,367.5 Z"/></g>
<g><path style="opacity:1" fill="#fdb54c" d="M 415.5,367.5 C 415.666,374.175 415.5,380.842 415,387.5C 413.657,390.862 411.824,393.862 409.5,396.5C 408.778,396.082 408.278,395.416 408,394.5C 407.5,385.506 407.334,376.506 407.5,367.5C 410.167,367.5 412.833,367.5 415.5,367.5 Z"/></g>
<g><path style="opacity:1" fill="#fba425" d="M 415.5,367.5 C 418.167,367.5 420.833,367.5 423.5,367.5C 423.666,376.506 423.5,385.506 423,394.5C 421.604,397.784 419.104,399.451 415.5,399.5C 412.898,399.533 410.898,398.533 409.5,396.5C 411.824,393.862 413.657,390.862 415,387.5C 415.5,380.842 415.666,374.175 415.5,367.5 Z"/></g>
<g><path style="opacity:1" fill="#8c6d62" d="M 430.5,410.5 C 431.661,424.327 431.827,438.327 431,452.5C 428.833,457.333 425.333,460.833 420.5,463C 365.501,463.5 310.501,463.667 255.5,463.5C 255.5,439.5 255.5,415.5 255.5,391.5C 263.5,391.5 271.5,391.5 279.5,391.5C 281.874,408.377 291.541,416.211 308.5,415C 320.2,411.47 326.533,403.637 327.5,391.5C 348.833,391.5 370.167,391.5 391.5,391.5C 393.874,408.377 403.541,416.211 420.5,415C 424.191,414.164 427.524,412.664 430.5,410.5 Z"/></g>
<g><path style="opacity:1" fill="#725950" d="M 255.5,463.5 C 310.501,463.667 365.501,463.5 420.5,463C 425.333,460.833 428.833,457.333 431,452.5C 431.827,438.327 431.661,424.327 430.5,410.5C 436.368,405.581 439.368,399.248 439.5,391.5C 447.542,391.736 455.542,391.403 463.5,390.5C 463.667,418.169 463.5,445.835 463,473.5C 462.727,475.329 461.893,476.829 460.5,478C 393.891,479.656 327.224,479.99 260.5,479C 258.333,478.167 256.833,476.667 256,474.5C 255.501,470.848 255.335,467.182 255.5,463.5 Z"/></g>
<g><path style="opacity:1" fill="#dfdfdf" d="M 31.5,407.5 C 100.833,407.5 170.167,407.5 239.5,407.5C 239.5,418.167 239.5,428.833 239.5,439.5C 234.167,439.5 228.833,439.5 223.5,439.5C 223.518,435.363 221.518,432.863 217.5,432C 161.5,431.667 105.5,431.333 49.5,431C 38.3705,427.043 32.3705,419.21 31.5,407.5 Z"/></g>
</svg>
